<svg xmlns="http://www.w3.org/2000/svg" width="26.383" height="20.81" viewBox="0 0 26.383 20.81"><g transform="translate(0 -33.331)"><path d="M25.965,33.331H.418A.418.418,0,0,0,0,33.749V53.723a.418.418,0,0,0,.418.418H25.965a.418.418,0,0,0,.418-.418V33.749A.418.418,0,0,0,25.965,33.331Zm-2.09,17.478-5.749-5.954a.171.171,0,0,0-.236-.01L13.9,48.355l-5.1-6.275a.168.168,0,0,0-.136-.063.171.171,0,0,0-.134.069L2.508,50.174V35.839H23.875v14.97Z"/><path d="M187.582,90.593a2.051,2.051,0,1,0-2.051-2.051A2.051,2.051,0,0,0,187.582,90.593Z" transform="translate(-170.02 -48.716)"/></g></svg>