<svg xmlns="http://www.w3.org/2000/svg" width="31.043" height="32.622" viewBox="0 0 31.043 32.622"><defs><style>.a{fill:#fff;}</style></defs><path class="a" d="M14.562,0h-.24a1.788,1.788,0,0,0-1.8,1.757V3.45L7.418,1.963a.558.558,0,0,0-.695.387L.079,25.248a.57.57,0,0,0,.39.7l22.9,6.648a.568.568,0,0,0,.7-.383l.709-2.439h5.739A.586.586,0,0,0,31.1,29.2V5.359a.555.555,0,0,0-.581-.538H17.177l-.824-.276V1.757A1.783,1.783,0,0,0,14.562,0Zm-.9,1.757a.653.653,0,0,1,.663-.623h.24a.648.648,0,0,1,.657.623V4.215l-1.56-.436ZM25.11,28.643l4.856-16.685V28.643ZM29.966,5.955V8.5L21.085,5.955Zm-.481,3.587L23.147,31.351,1.334,25.02,7.677,3.21,15.219,5.4v3.87a.638.638,0,0,1-1.276,0V6.91a.567.567,0,1,0-1.134,0V9.266a1.772,1.772,0,1,0,3.545,0V5.726Zm0,0" transform="translate(-0.057)"/></svg>